<?xml version="1.0" standalone="no"?>
<!DOCTYPE svg PUBLIC "-//W3C//DTD SVG 20010904//EN"
 "http://www.w3.org/TR/2001/REC-SVG-20010904/DTD/svg10.dtd">
<svg version="1.0" xmlns="http://www.w3.org/2000/svg"
 width="117.000000pt" height="48.000000pt" viewBox="0 0 117.000000 48.000000"
 preserveAspectRatio="xMidYMid meet">
<metadata>
Created by potrace 1.16, written by Peter Selinger 2001-2019
</metadata>
<g transform="translate(0.000000,48.000000) scale(0.100000,-0.100000)"
fill="#000000" stroke="none">
<path d="M0 240 l0 -240 585 0 585 0 0 240 0 240 -585 0 -585 0 0 -240z m295
100 c0 -24 -3 -25 -62 -28 -55 -3 -63 -6 -63 -22 0 -18 7 -20 60 -20 l60 0 0
-30 0 -30 -60 0 c-53 0 -60 -2 -60 -20 0 -16 8 -19 63 -22 59 -3 62 -4 65 -30
l3 -28 -100 0 -101 0 0 130 0 131 98 -3 c96 -3 97 -3 97 -28z m135 -27 l32
-57 32 57 c28 51 34 57 64 57 l32 0 0 -130 0 -130 -35 0 -34 0 -3 58 c-3 56
-3 56 -17 30 -20 -39 -53 -37 -80 5 l-21 32 0 -62 0 -63 -35 0 -35 0 0 130 0
130 34 0 c31 0 37 -5 66 -57z m410 28 c0 -20 -17 -51 -56 -100 l-55 -71 56 0
c47 0 57 -3 63 -21 7 -17 17 4 52 100 l44 121 42 0 c31 0 44 -5 49 -17 14 -35
85 -235 85 -239 0 -2 -16 -4 -35 -4 -24 0 -37 6 -45 20 -15 29 -96 29 -105 0
-6 -19 -15 -20 -161 -20 l-154 0 0 24 c0 14 24 54 59 97 l59 74 -54 3 c-52 3
-54 4 -54 32 l0 30 105 0 105 0 0 -29z"/>
</g>
</svg>
